<mxfile host="app.diagrams.net" modified="2023-10-13T04:57:08.312Z" agent="Mozilla/5.0 (Macintosh; Intel Mac OS X 10_15_7) AppleWebKit/537.36 (KHTML, like Gecko) Chrome/115.0.0.0 Safari/537.36" etag="of360R7LA38ZCX9zthDN" version="21.7.5" type="device">
  <diagram name="Abarrotes" id="EfDkZvmhZs1Jvy4Y3vWi">
    <mxGraphModel dx="3875" dy="1229" grid="1" gridSize="10" guides="1" tooltips="1" connect="1" arrows="1" fold="1" page="0" pageScale="1" pageWidth="850" pageHeight="1100" math="0" shadow="0">
      <root>
        <mxCell id="0" />
        <mxCell id="1" parent="0" />
        <mxCell id="-Em5idK0ge4OqNYhMPVP-295" value="product" style="shape=table;startSize=30;container=1;collapsible=1;childLayout=tableLayout;fixedRows=1;rowLines=0;fontStyle=1;align=center;resizeLast=1;html=1;" parent="1" vertex="1">
          <mxGeometry x="-1450" y="-290" width="180" height="170" as="geometry" />
        </mxCell>
        <mxCell id="-Em5idK0ge4OqNYhMPVP-296" value="" style="shape=tableRow;horizontal=0;startSize=0;swimlaneHead=0;swimlaneBody=0;fillColor=none;collapsible=0;dropTarget=0;points=[[0,0.5],[1,0.5]];portConstraint=eastwest;top=0;left=0;right=0;bottom=1;" parent="-Em5idK0ge4OqNYhMPVP-295" vertex="1">
          <mxGeometry y="30" width="180" height="30" as="geometry" />
        </mxCell>
        <mxCell id="-Em5idK0ge4OqNYhMPVP-297" value="PK" style="shape=partialRectangle;connectable=0;fillColor=none;top=0;left=0;bottom=0;right=0;fontStyle=1;overflow=hidden;whiteSpace=wrap;html=1;" parent="-Em5idK0ge4OqNYhMPVP-296" vertex="1">
          <mxGeometry width="30" height="30" as="geometry">
            <mxRectangle width="30" height="30" as="alternateBounds" />
          </mxGeometry>
        </mxCell>
        <mxCell id="-Em5idK0ge4OqNYhMPVP-298" value="sku" style="shape=partialRectangle;connectable=0;fillColor=none;top=0;left=0;bottom=0;right=0;align=left;spacingLeft=6;fontStyle=5;overflow=hidden;whiteSpace=wrap;html=1;" parent="-Em5idK0ge4OqNYhMPVP-296" vertex="1">
          <mxGeometry x="30" width="150" height="30" as="geometry">
            <mxRectangle width="150" height="30" as="alternateBounds" />
          </mxGeometry>
        </mxCell>
        <mxCell id="-Em5idK0ge4OqNYhMPVP-299" value="" style="shape=tableRow;horizontal=0;startSize=0;swimlaneHead=0;swimlaneBody=0;fillColor=none;collapsible=0;dropTarget=0;points=[[0,0.5],[1,0.5]];portConstraint=eastwest;top=0;left=0;right=0;bottom=0;" parent="-Em5idK0ge4OqNYhMPVP-295" vertex="1">
          <mxGeometry y="60" width="180" height="30" as="geometry" />
        </mxCell>
        <mxCell id="-Em5idK0ge4OqNYhMPVP-300" value="" style="shape=partialRectangle;connectable=0;fillColor=none;top=0;left=0;bottom=0;right=0;editable=1;overflow=hidden;whiteSpace=wrap;html=1;" parent="-Em5idK0ge4OqNYhMPVP-299" vertex="1">
          <mxGeometry width="30" height="30" as="geometry">
            <mxRectangle width="30" height="30" as="alternateBounds" />
          </mxGeometry>
        </mxCell>
        <mxCell id="-Em5idK0ge4OqNYhMPVP-301" value="product_name" style="shape=partialRectangle;connectable=0;fillColor=none;top=0;left=0;bottom=0;right=0;align=left;spacingLeft=6;overflow=hidden;whiteSpace=wrap;html=1;" parent="-Em5idK0ge4OqNYhMPVP-299" vertex="1">
          <mxGeometry x="30" width="150" height="30" as="geometry">
            <mxRectangle width="150" height="30" as="alternateBounds" />
          </mxGeometry>
        </mxCell>
        <mxCell id="-Em5idK0ge4OqNYhMPVP-302" value="" style="shape=tableRow;horizontal=0;startSize=0;swimlaneHead=0;swimlaneBody=0;fillColor=none;collapsible=0;dropTarget=0;points=[[0,0.5],[1,0.5]];portConstraint=eastwest;top=0;left=0;right=0;bottom=0;" parent="-Em5idK0ge4OqNYhMPVP-295" vertex="1">
          <mxGeometry y="90" width="180" height="30" as="geometry" />
        </mxCell>
        <mxCell id="-Em5idK0ge4OqNYhMPVP-303" value="" style="shape=partialRectangle;connectable=0;fillColor=none;top=0;left=0;bottom=0;right=0;editable=1;overflow=hidden;whiteSpace=wrap;html=1;" parent="-Em5idK0ge4OqNYhMPVP-302" vertex="1">
          <mxGeometry width="30" height="30" as="geometry">
            <mxRectangle width="30" height="30" as="alternateBounds" />
          </mxGeometry>
        </mxCell>
        <mxCell id="-Em5idK0ge4OqNYhMPVP-304" value="description" style="shape=partialRectangle;connectable=0;fillColor=none;top=0;left=0;bottom=0;right=0;align=left;spacingLeft=6;overflow=hidden;whiteSpace=wrap;html=1;" parent="-Em5idK0ge4OqNYhMPVP-302" vertex="1">
          <mxGeometry x="30" width="150" height="30" as="geometry">
            <mxRectangle width="150" height="30" as="alternateBounds" />
          </mxGeometry>
        </mxCell>
        <mxCell id="-Em5idK0ge4OqNYhMPVP-305" value="" style="shape=tableRow;horizontal=0;startSize=0;swimlaneHead=0;swimlaneBody=0;fillColor=none;collapsible=0;dropTarget=0;points=[[0,0.5],[1,0.5]];portConstraint=eastwest;top=0;left=0;right=0;bottom=0;" parent="-Em5idK0ge4OqNYhMPVP-295" vertex="1">
          <mxGeometry y="120" width="180" height="30" as="geometry" />
        </mxCell>
        <mxCell id="-Em5idK0ge4OqNYhMPVP-306" value="" style="shape=partialRectangle;connectable=0;fillColor=none;top=0;left=0;bottom=0;right=0;editable=1;overflow=hidden;whiteSpace=wrap;html=1;" parent="-Em5idK0ge4OqNYhMPVP-305" vertex="1">
          <mxGeometry width="30" height="30" as="geometry">
            <mxRectangle width="30" height="30" as="alternateBounds" />
          </mxGeometry>
        </mxCell>
        <mxCell id="-Em5idK0ge4OqNYhMPVP-307" value="price" style="shape=partialRectangle;connectable=0;fillColor=none;top=0;left=0;bottom=0;right=0;align=left;spacingLeft=6;overflow=hidden;whiteSpace=wrap;html=1;" parent="-Em5idK0ge4OqNYhMPVP-305" vertex="1">
          <mxGeometry x="30" width="150" height="30" as="geometry">
            <mxRectangle width="150" height="30" as="alternateBounds" />
          </mxGeometry>
        </mxCell>
        <mxCell id="-Em5idK0ge4OqNYhMPVP-309" value="" style="shape=tableRow;horizontal=0;startSize=0;swimlaneHead=0;swimlaneBody=0;fillColor=none;collapsible=0;dropTarget=0;points=[[0,0.5],[1,0.5]];portConstraint=eastwest;top=0;left=0;right=0;bottom=0;" parent="-Em5idK0ge4OqNYhMPVP-295" vertex="1">
          <mxGeometry y="150" width="180" height="20" as="geometry" />
        </mxCell>
        <mxCell id="-Em5idK0ge4OqNYhMPVP-310" value="" style="shape=partialRectangle;connectable=0;fillColor=none;top=0;left=0;bottom=0;right=0;editable=1;overflow=hidden;" parent="-Em5idK0ge4OqNYhMPVP-309" vertex="1">
          <mxGeometry width="30" height="20" as="geometry">
            <mxRectangle width="30" height="20" as="alternateBounds" />
          </mxGeometry>
        </mxCell>
        <mxCell id="-Em5idK0ge4OqNYhMPVP-311" value="" style="shape=partialRectangle;connectable=0;fillColor=none;top=0;left=0;bottom=0;right=0;align=left;spacingLeft=6;overflow=hidden;" parent="-Em5idK0ge4OqNYhMPVP-309" vertex="1">
          <mxGeometry x="30" width="150" height="20" as="geometry">
            <mxRectangle width="150" height="20" as="alternateBounds" />
          </mxGeometry>
        </mxCell>
        <mxCell id="-Em5idK0ge4OqNYhMPVP-317" style="edgeStyle=orthogonalEdgeStyle;rounded=0;orthogonalLoop=1;jettySize=auto;html=1;exitX=0.5;exitY=1;exitDx=0;exitDy=0;entryX=0.5;entryY=0.944;entryDx=0;entryDy=0;entryPerimeter=0;" parent="-Em5idK0ge4OqNYhMPVP-295" source="-Em5idK0ge4OqNYhMPVP-295" target="-Em5idK0ge4OqNYhMPVP-309" edge="1">
          <mxGeometry relative="1" as="geometry" />
        </mxCell>
        <mxCell id="-Em5idK0ge4OqNYhMPVP-318" value="customer" style="shape=table;startSize=30;container=1;collapsible=1;childLayout=tableLayout;fixedRows=1;rowLines=0;fontStyle=1;align=center;resizeLast=1;html=1;" parent="1" vertex="1">
          <mxGeometry x="-2250" y="-290" width="180" height="320" as="geometry" />
        </mxCell>
        <mxCell id="-Em5idK0ge4OqNYhMPVP-319" value="" style="shape=tableRow;horizontal=0;startSize=0;swimlaneHead=0;swimlaneBody=0;fillColor=none;collapsible=0;dropTarget=0;points=[[0,0.5],[1,0.5]];portConstraint=eastwest;top=0;left=0;right=0;bottom=1;" parent="-Em5idK0ge4OqNYhMPVP-318" vertex="1">
          <mxGeometry y="30" width="180" height="30" as="geometry" />
        </mxCell>
        <mxCell id="-Em5idK0ge4OqNYhMPVP-320" value="PK" style="shape=partialRectangle;connectable=0;fillColor=none;top=0;left=0;bottom=0;right=0;fontStyle=1;overflow=hidden;whiteSpace=wrap;html=1;" parent="-Em5idK0ge4OqNYhMPVP-319" vertex="1">
          <mxGeometry width="30" height="30" as="geometry">
            <mxRectangle width="30" height="30" as="alternateBounds" />
          </mxGeometry>
        </mxCell>
        <mxCell id="-Em5idK0ge4OqNYhMPVP-321" value="customer_id" style="shape=partialRectangle;connectable=0;fillColor=none;top=0;left=0;bottom=0;right=0;align=left;spacingLeft=6;fontStyle=5;overflow=hidden;whiteSpace=wrap;html=1;" parent="-Em5idK0ge4OqNYhMPVP-319" vertex="1">
          <mxGeometry x="30" width="150" height="30" as="geometry">
            <mxRectangle width="150" height="30" as="alternateBounds" />
          </mxGeometry>
        </mxCell>
        <mxCell id="-Em5idK0ge4OqNYhMPVP-348" value="" style="shape=tableRow;horizontal=0;startSize=0;swimlaneHead=0;swimlaneBody=0;fillColor=none;collapsible=0;dropTarget=0;points=[[0,0.5],[1,0.5]];portConstraint=eastwest;top=0;left=0;right=0;bottom=0;" parent="-Em5idK0ge4OqNYhMPVP-318" vertex="1">
          <mxGeometry y="60" width="180" height="30" as="geometry" />
        </mxCell>
        <mxCell id="-Em5idK0ge4OqNYhMPVP-349" value="" style="shape=partialRectangle;connectable=0;fillColor=none;top=0;left=0;bottom=0;right=0;editable=1;overflow=hidden;whiteSpace=wrap;html=1;" parent="-Em5idK0ge4OqNYhMPVP-348" vertex="1">
          <mxGeometry width="30" height="30" as="geometry">
            <mxRectangle width="30" height="30" as="alternateBounds" />
          </mxGeometry>
        </mxCell>
        <mxCell id="-Em5idK0ge4OqNYhMPVP-350" value="customer_name" style="shape=partialRectangle;connectable=0;fillColor=none;top=0;left=0;bottom=0;right=0;align=left;spacingLeft=6;overflow=hidden;whiteSpace=wrap;html=1;" parent="-Em5idK0ge4OqNYhMPVP-348" vertex="1">
          <mxGeometry x="30" width="150" height="30" as="geometry">
            <mxRectangle width="150" height="30" as="alternateBounds" />
          </mxGeometry>
        </mxCell>
        <mxCell id="-Em5idK0ge4OqNYhMPVP-322" value="" style="shape=tableRow;horizontal=0;startSize=0;swimlaneHead=0;swimlaneBody=0;fillColor=none;collapsible=0;dropTarget=0;points=[[0,0.5],[1,0.5]];portConstraint=eastwest;top=0;left=0;right=0;bottom=0;" parent="-Em5idK0ge4OqNYhMPVP-318" vertex="1">
          <mxGeometry y="90" width="180" height="30" as="geometry" />
        </mxCell>
        <mxCell id="-Em5idK0ge4OqNYhMPVP-323" value="" style="shape=partialRectangle;connectable=0;fillColor=none;top=0;left=0;bottom=0;right=0;editable=1;overflow=hidden;whiteSpace=wrap;html=1;" parent="-Em5idK0ge4OqNYhMPVP-322" vertex="1">
          <mxGeometry width="30" height="30" as="geometry">
            <mxRectangle width="30" height="30" as="alternateBounds" />
          </mxGeometry>
        </mxCell>
        <mxCell id="-Em5idK0ge4OqNYhMPVP-324" value="first_name" style="shape=partialRectangle;connectable=0;fillColor=none;top=0;left=0;bottom=0;right=0;align=left;spacingLeft=6;overflow=hidden;whiteSpace=wrap;html=1;" parent="-Em5idK0ge4OqNYhMPVP-322" vertex="1">
          <mxGeometry x="30" width="150" height="30" as="geometry">
            <mxRectangle width="150" height="30" as="alternateBounds" />
          </mxGeometry>
        </mxCell>
        <mxCell id="-Em5idK0ge4OqNYhMPVP-325" value="" style="shape=tableRow;horizontal=0;startSize=0;swimlaneHead=0;swimlaneBody=0;fillColor=none;collapsible=0;dropTarget=0;points=[[0,0.5],[1,0.5]];portConstraint=eastwest;top=0;left=0;right=0;bottom=0;" parent="-Em5idK0ge4OqNYhMPVP-318" vertex="1">
          <mxGeometry y="120" width="180" height="30" as="geometry" />
        </mxCell>
        <mxCell id="-Em5idK0ge4OqNYhMPVP-326" value="" style="shape=partialRectangle;connectable=0;fillColor=none;top=0;left=0;bottom=0;right=0;editable=1;overflow=hidden;whiteSpace=wrap;html=1;" parent="-Em5idK0ge4OqNYhMPVP-325" vertex="1">
          <mxGeometry width="30" height="30" as="geometry">
            <mxRectangle width="30" height="30" as="alternateBounds" />
          </mxGeometry>
        </mxCell>
        <mxCell id="-Em5idK0ge4OqNYhMPVP-327" value="last_name" style="shape=partialRectangle;connectable=0;fillColor=none;top=0;left=0;bottom=0;right=0;align=left;spacingLeft=6;overflow=hidden;whiteSpace=wrap;html=1;" parent="-Em5idK0ge4OqNYhMPVP-325" vertex="1">
          <mxGeometry x="30" width="150" height="30" as="geometry">
            <mxRectangle width="150" height="30" as="alternateBounds" />
          </mxGeometry>
        </mxCell>
        <mxCell id="-Em5idK0ge4OqNYhMPVP-328" value="" style="shape=tableRow;horizontal=0;startSize=0;swimlaneHead=0;swimlaneBody=0;fillColor=none;collapsible=0;dropTarget=0;points=[[0,0.5],[1,0.5]];portConstraint=eastwest;top=0;left=0;right=0;bottom=0;" parent="-Em5idK0ge4OqNYhMPVP-318" vertex="1">
          <mxGeometry y="150" width="180" height="30" as="geometry" />
        </mxCell>
        <mxCell id="-Em5idK0ge4OqNYhMPVP-329" value="" style="shape=partialRectangle;connectable=0;fillColor=none;top=0;left=0;bottom=0;right=0;editable=1;overflow=hidden;whiteSpace=wrap;html=1;" parent="-Em5idK0ge4OqNYhMPVP-328" vertex="1">
          <mxGeometry width="30" height="30" as="geometry">
            <mxRectangle width="30" height="30" as="alternateBounds" />
          </mxGeometry>
        </mxCell>
        <mxCell id="-Em5idK0ge4OqNYhMPVP-330" value="email" style="shape=partialRectangle;connectable=0;fillColor=none;top=0;left=0;bottom=0;right=0;align=left;spacingLeft=6;overflow=hidden;whiteSpace=wrap;html=1;" parent="-Em5idK0ge4OqNYhMPVP-328" vertex="1">
          <mxGeometry x="30" width="150" height="30" as="geometry">
            <mxRectangle width="150" height="30" as="alternateBounds" />
          </mxGeometry>
        </mxCell>
        <mxCell id="-Em5idK0ge4OqNYhMPVP-355" value="" style="shape=tableRow;horizontal=0;startSize=0;swimlaneHead=0;swimlaneBody=0;fillColor=none;collapsible=0;dropTarget=0;points=[[0,0.5],[1,0.5]];portConstraint=eastwest;top=0;left=0;right=0;bottom=0;" parent="-Em5idK0ge4OqNYhMPVP-318" vertex="1">
          <mxGeometry y="180" width="180" height="20" as="geometry" />
        </mxCell>
        <mxCell id="-Em5idK0ge4OqNYhMPVP-356" value="" style="shape=partialRectangle;connectable=0;fillColor=none;top=0;left=0;bottom=0;right=0;editable=1;overflow=hidden;" parent="-Em5idK0ge4OqNYhMPVP-355" vertex="1">
          <mxGeometry width="30" height="20" as="geometry">
            <mxRectangle width="30" height="20" as="alternateBounds" />
          </mxGeometry>
        </mxCell>
        <mxCell id="-Em5idK0ge4OqNYhMPVP-357" value="phone" style="shape=partialRectangle;connectable=0;fillColor=none;top=0;left=0;bottom=0;right=0;align=left;spacingLeft=6;overflow=hidden;" parent="-Em5idK0ge4OqNYhMPVP-355" vertex="1">
          <mxGeometry x="30" width="150" height="20" as="geometry">
            <mxRectangle width="150" height="20" as="alternateBounds" />
          </mxGeometry>
        </mxCell>
        <mxCell id="-Em5idK0ge4OqNYhMPVP-359" value="" style="shape=tableRow;horizontal=0;startSize=0;swimlaneHead=0;swimlaneBody=0;fillColor=none;collapsible=0;dropTarget=0;points=[[0,0.5],[1,0.5]];portConstraint=eastwest;top=0;left=0;right=0;bottom=0;" parent="-Em5idK0ge4OqNYhMPVP-318" vertex="1">
          <mxGeometry y="200" width="180" height="30" as="geometry" />
        </mxCell>
        <mxCell id="-Em5idK0ge4OqNYhMPVP-360" value="" style="shape=partialRectangle;connectable=0;fillColor=none;top=0;left=0;bottom=0;right=0;editable=1;overflow=hidden;" parent="-Em5idK0ge4OqNYhMPVP-359" vertex="1">
          <mxGeometry width="30" height="30" as="geometry">
            <mxRectangle width="30" height="30" as="alternateBounds" />
          </mxGeometry>
        </mxCell>
        <mxCell id="-Em5idK0ge4OqNYhMPVP-361" value="address" style="shape=partialRectangle;connectable=0;fillColor=none;top=0;left=0;bottom=0;right=0;align=left;spacingLeft=6;overflow=hidden;" parent="-Em5idK0ge4OqNYhMPVP-359" vertex="1">
          <mxGeometry x="30" width="150" height="30" as="geometry">
            <mxRectangle width="150" height="30" as="alternateBounds" />
          </mxGeometry>
        </mxCell>
        <mxCell id="-Em5idK0ge4OqNYhMPVP-363" value="" style="shape=tableRow;horizontal=0;startSize=0;swimlaneHead=0;swimlaneBody=0;fillColor=none;collapsible=0;dropTarget=0;points=[[0,0.5],[1,0.5]];portConstraint=eastwest;top=0;left=0;right=0;bottom=0;" parent="-Em5idK0ge4OqNYhMPVP-318" vertex="1">
          <mxGeometry y="230" width="180" height="30" as="geometry" />
        </mxCell>
        <mxCell id="-Em5idK0ge4OqNYhMPVP-364" value="" style="shape=partialRectangle;connectable=0;fillColor=none;top=0;left=0;bottom=0;right=0;editable=1;overflow=hidden;" parent="-Em5idK0ge4OqNYhMPVP-363" vertex="1">
          <mxGeometry width="30" height="30" as="geometry">
            <mxRectangle width="30" height="30" as="alternateBounds" />
          </mxGeometry>
        </mxCell>
        <mxCell id="-Em5idK0ge4OqNYhMPVP-365" value="neighborhood" style="shape=partialRectangle;connectable=0;fillColor=none;top=0;left=0;bottom=0;right=0;align=left;spacingLeft=6;overflow=hidden;" parent="-Em5idK0ge4OqNYhMPVP-363" vertex="1">
          <mxGeometry x="30" width="150" height="30" as="geometry">
            <mxRectangle width="150" height="30" as="alternateBounds" />
          </mxGeometry>
        </mxCell>
        <mxCell id="-Em5idK0ge4OqNYhMPVP-367" value="" style="shape=tableRow;horizontal=0;startSize=0;swimlaneHead=0;swimlaneBody=0;fillColor=none;collapsible=0;dropTarget=0;points=[[0,0.5],[1,0.5]];portConstraint=eastwest;top=0;left=0;right=0;bottom=0;" parent="-Em5idK0ge4OqNYhMPVP-318" vertex="1">
          <mxGeometry y="260" width="180" height="30" as="geometry" />
        </mxCell>
        <mxCell id="-Em5idK0ge4OqNYhMPVP-368" value="" style="shape=partialRectangle;connectable=0;fillColor=none;top=0;left=0;bottom=0;right=0;editable=1;overflow=hidden;" parent="-Em5idK0ge4OqNYhMPVP-367" vertex="1">
          <mxGeometry width="30" height="30" as="geometry">
            <mxRectangle width="30" height="30" as="alternateBounds" />
          </mxGeometry>
        </mxCell>
        <mxCell id="-Em5idK0ge4OqNYhMPVP-369" value="city" style="shape=partialRectangle;connectable=0;fillColor=none;top=0;left=0;bottom=0;right=0;align=left;spacingLeft=6;overflow=hidden;" parent="-Em5idK0ge4OqNYhMPVP-367" vertex="1">
          <mxGeometry x="30" width="150" height="30" as="geometry">
            <mxRectangle width="150" height="30" as="alternateBounds" />
          </mxGeometry>
        </mxCell>
        <mxCell id="-Em5idK0ge4OqNYhMPVP-371" value="" style="shape=tableRow;horizontal=0;startSize=0;swimlaneHead=0;swimlaneBody=0;fillColor=none;collapsible=0;dropTarget=0;points=[[0,0.5],[1,0.5]];portConstraint=eastwest;top=0;left=0;right=0;bottom=0;" parent="-Em5idK0ge4OqNYhMPVP-318" vertex="1">
          <mxGeometry y="290" width="180" height="30" as="geometry" />
        </mxCell>
        <mxCell id="-Em5idK0ge4OqNYhMPVP-372" value="" style="shape=partialRectangle;connectable=0;fillColor=none;top=0;left=0;bottom=0;right=0;editable=1;overflow=hidden;" parent="-Em5idK0ge4OqNYhMPVP-371" vertex="1">
          <mxGeometry width="30" height="30" as="geometry">
            <mxRectangle width="30" height="30" as="alternateBounds" />
          </mxGeometry>
        </mxCell>
        <mxCell id="-Em5idK0ge4OqNYhMPVP-373" value="postal_code" style="shape=partialRectangle;connectable=0;fillColor=none;top=0;left=0;bottom=0;right=0;align=left;spacingLeft=6;overflow=hidden;" parent="-Em5idK0ge4OqNYhMPVP-371" vertex="1">
          <mxGeometry x="30" width="150" height="30" as="geometry">
            <mxRectangle width="150" height="30" as="alternateBounds" />
          </mxGeometry>
        </mxCell>
        <mxCell id="-Em5idK0ge4OqNYhMPVP-351" value="" style="shape=tableRow;horizontal=0;startSize=0;swimlaneHead=0;swimlaneBody=0;fillColor=none;collapsible=0;dropTarget=0;points=[[0,0.5],[1,0.5]];portConstraint=eastwest;top=0;left=0;right=0;bottom=0;" parent="1" vertex="1">
          <mxGeometry x="-1590" y="-180" width="180" height="30" as="geometry" />
        </mxCell>
        <mxCell id="-Em5idK0ge4OqNYhMPVP-352" value="" style="shape=partialRectangle;connectable=0;fillColor=none;top=0;left=0;bottom=0;right=0;editable=1;overflow=hidden;whiteSpace=wrap;html=1;" parent="-Em5idK0ge4OqNYhMPVP-351" vertex="1">
          <mxGeometry width="30" height="30" as="geometry">
            <mxRectangle width="30" height="30" as="alternateBounds" />
          </mxGeometry>
        </mxCell>
        <mxCell id="-Em5idK0ge4OqNYhMPVP-379" value="sales" style="shape=table;startSize=30;container=1;collapsible=1;childLayout=tableLayout;fixedRows=1;rowLines=0;fontStyle=1;align=center;resizeLast=1;html=1;" parent="1" vertex="1">
          <mxGeometry x="-1840" y="-290" width="180" height="210" as="geometry" />
        </mxCell>
        <mxCell id="-Em5idK0ge4OqNYhMPVP-380" value="" style="shape=tableRow;horizontal=0;startSize=0;swimlaneHead=0;swimlaneBody=0;fillColor=none;collapsible=0;dropTarget=0;points=[[0,0.5],[1,0.5]];portConstraint=eastwest;top=0;left=0;right=0;bottom=1;" parent="-Em5idK0ge4OqNYhMPVP-379" vertex="1">
          <mxGeometry y="30" width="180" height="30" as="geometry" />
        </mxCell>
        <mxCell id="-Em5idK0ge4OqNYhMPVP-381" value="PK" style="shape=partialRectangle;connectable=0;fillColor=none;top=0;left=0;bottom=0;right=0;fontStyle=1;overflow=hidden;whiteSpace=wrap;html=1;" parent="-Em5idK0ge4OqNYhMPVP-380" vertex="1">
          <mxGeometry width="30" height="30" as="geometry">
            <mxRectangle width="30" height="30" as="alternateBounds" />
          </mxGeometry>
        </mxCell>
        <mxCell id="-Em5idK0ge4OqNYhMPVP-382" value="sales_order" style="shape=partialRectangle;connectable=0;fillColor=none;top=0;left=0;bottom=0;right=0;align=left;spacingLeft=6;fontStyle=5;overflow=hidden;whiteSpace=wrap;html=1;" parent="-Em5idK0ge4OqNYhMPVP-380" vertex="1">
          <mxGeometry x="30" width="150" height="30" as="geometry">
            <mxRectangle width="150" height="30" as="alternateBounds" />
          </mxGeometry>
        </mxCell>
        <mxCell id="-Em5idK0ge4OqNYhMPVP-383" value="" style="shape=tableRow;horizontal=0;startSize=0;swimlaneHead=0;swimlaneBody=0;fillColor=none;collapsible=0;dropTarget=0;points=[[0,0.5],[1,0.5]];portConstraint=eastwest;top=0;left=0;right=0;bottom=0;" parent="-Em5idK0ge4OqNYhMPVP-379" vertex="1">
          <mxGeometry y="60" width="180" height="30" as="geometry" />
        </mxCell>
        <mxCell id="-Em5idK0ge4OqNYhMPVP-384" value="FK" style="shape=partialRectangle;connectable=0;fillColor=none;top=0;left=0;bottom=0;right=0;editable=1;overflow=hidden;whiteSpace=wrap;html=1;" parent="-Em5idK0ge4OqNYhMPVP-383" vertex="1">
          <mxGeometry width="30" height="30" as="geometry">
            <mxRectangle width="30" height="30" as="alternateBounds" />
          </mxGeometry>
        </mxCell>
        <mxCell id="-Em5idK0ge4OqNYhMPVP-385" value="customer_id" style="shape=partialRectangle;connectable=0;fillColor=none;top=0;left=0;bottom=0;right=0;align=left;spacingLeft=6;overflow=hidden;whiteSpace=wrap;html=1;" parent="-Em5idK0ge4OqNYhMPVP-383" vertex="1">
          <mxGeometry x="30" width="150" height="30" as="geometry">
            <mxRectangle width="150" height="30" as="alternateBounds" />
          </mxGeometry>
        </mxCell>
        <mxCell id="-Em5idK0ge4OqNYhMPVP-389" value="" style="shape=tableRow;horizontal=0;startSize=0;swimlaneHead=0;swimlaneBody=0;fillColor=none;collapsible=0;dropTarget=0;points=[[0,0.5],[1,0.5]];portConstraint=eastwest;top=0;left=0;right=0;bottom=0;" parent="-Em5idK0ge4OqNYhMPVP-379" vertex="1">
          <mxGeometry y="90" width="180" height="30" as="geometry" />
        </mxCell>
        <mxCell id="-Em5idK0ge4OqNYhMPVP-390" value="FK" style="shape=partialRectangle;connectable=0;fillColor=none;top=0;left=0;bottom=0;right=0;editable=1;overflow=hidden;whiteSpace=wrap;html=1;" parent="-Em5idK0ge4OqNYhMPVP-389" vertex="1">
          <mxGeometry width="30" height="30" as="geometry">
            <mxRectangle width="30" height="30" as="alternateBounds" />
          </mxGeometry>
        </mxCell>
        <mxCell id="-Em5idK0ge4OqNYhMPVP-391" value="sku" style="shape=partialRectangle;connectable=0;fillColor=none;top=0;left=0;bottom=0;right=0;align=left;spacingLeft=6;overflow=hidden;whiteSpace=wrap;html=1;" parent="-Em5idK0ge4OqNYhMPVP-389" vertex="1">
          <mxGeometry x="30" width="150" height="30" as="geometry">
            <mxRectangle width="150" height="30" as="alternateBounds" />
          </mxGeometry>
        </mxCell>
        <mxCell id="-Em5idK0ge4OqNYhMPVP-397" value="" style="shape=tableRow;horizontal=0;startSize=0;swimlaneHead=0;swimlaneBody=0;fillColor=none;collapsible=0;dropTarget=0;points=[[0,0.5],[1,0.5]];portConstraint=eastwest;top=0;left=0;right=0;bottom=0;" parent="-Em5idK0ge4OqNYhMPVP-379" vertex="1">
          <mxGeometry y="120" width="180" height="30" as="geometry" />
        </mxCell>
        <mxCell id="-Em5idK0ge4OqNYhMPVP-398" value="" style="shape=partialRectangle;connectable=0;fillColor=none;top=0;left=0;bottom=0;right=0;editable=1;overflow=hidden;" parent="-Em5idK0ge4OqNYhMPVP-397" vertex="1">
          <mxGeometry width="30" height="30" as="geometry">
            <mxRectangle width="30" height="30" as="alternateBounds" />
          </mxGeometry>
        </mxCell>
        <mxCell id="-Em5idK0ge4OqNYhMPVP-399" value="qty" style="shape=partialRectangle;connectable=0;fillColor=none;top=0;left=0;bottom=0;right=0;align=left;spacingLeft=6;overflow=hidden;" parent="-Em5idK0ge4OqNYhMPVP-397" vertex="1">
          <mxGeometry x="30" width="150" height="30" as="geometry">
            <mxRectangle width="150" height="30" as="alternateBounds" />
          </mxGeometry>
        </mxCell>
        <mxCell id="-Em5idK0ge4OqNYhMPVP-405" value="" style="shape=tableRow;horizontal=0;startSize=0;swimlaneHead=0;swimlaneBody=0;fillColor=none;collapsible=0;dropTarget=0;points=[[0,0.5],[1,0.5]];portConstraint=eastwest;top=0;left=0;right=0;bottom=0;" parent="-Em5idK0ge4OqNYhMPVP-379" vertex="1">
          <mxGeometry y="150" width="180" height="30" as="geometry" />
        </mxCell>
        <mxCell id="-Em5idK0ge4OqNYhMPVP-406" value="" style="shape=partialRectangle;connectable=0;fillColor=none;top=0;left=0;bottom=0;right=0;editable=1;overflow=hidden;" parent="-Em5idK0ge4OqNYhMPVP-405" vertex="1">
          <mxGeometry width="30" height="30" as="geometry">
            <mxRectangle width="30" height="30" as="alternateBounds" />
          </mxGeometry>
        </mxCell>
        <mxCell id="-Em5idK0ge4OqNYhMPVP-407" value="" style="shape=partialRectangle;connectable=0;fillColor=none;top=0;left=0;bottom=0;right=0;align=left;spacingLeft=6;overflow=hidden;" parent="-Em5idK0ge4OqNYhMPVP-405" vertex="1">
          <mxGeometry x="30" width="150" height="30" as="geometry">
            <mxRectangle width="150" height="30" as="alternateBounds" />
          </mxGeometry>
        </mxCell>
        <mxCell id="-Em5idK0ge4OqNYhMPVP-409" value="" style="shape=tableRow;horizontal=0;startSize=0;swimlaneHead=0;swimlaneBody=0;fillColor=none;collapsible=0;dropTarget=0;points=[[0,0.5],[1,0.5]];portConstraint=eastwest;top=0;left=0;right=0;bottom=0;" parent="-Em5idK0ge4OqNYhMPVP-379" vertex="1">
          <mxGeometry y="180" width="180" height="30" as="geometry" />
        </mxCell>
        <mxCell id="-Em5idK0ge4OqNYhMPVP-410" value="" style="shape=partialRectangle;connectable=0;fillColor=none;top=0;left=0;bottom=0;right=0;editable=1;overflow=hidden;" parent="-Em5idK0ge4OqNYhMPVP-409" vertex="1">
          <mxGeometry width="30" height="30" as="geometry">
            <mxRectangle width="30" height="30" as="alternateBounds" />
          </mxGeometry>
        </mxCell>
        <mxCell id="-Em5idK0ge4OqNYhMPVP-411" value="sales_date" style="shape=partialRectangle;connectable=0;fillColor=none;top=0;left=0;bottom=0;right=0;align=left;spacingLeft=6;overflow=hidden;" parent="-Em5idK0ge4OqNYhMPVP-409" vertex="1">
          <mxGeometry x="30" width="150" height="30" as="geometry">
            <mxRectangle width="150" height="30" as="alternateBounds" />
          </mxGeometry>
        </mxCell>
        <mxCell id="-Em5idK0ge4OqNYhMPVP-412" value="" style="edgeStyle=entityRelationEdgeStyle;fontSize=12;html=1;endArrow=ERzeroToMany;startArrow=ERmandOne;rounded=0;entryX=0;entryY=0.5;entryDx=0;entryDy=0;" parent="1" target="-Em5idK0ge4OqNYhMPVP-383" edge="1">
          <mxGeometry width="100" height="100" relative="1" as="geometry">
            <mxPoint x="-2070" y="-245.56" as="sourcePoint" />
            <mxPoint x="-1840" y="-245.17999999999944" as="targetPoint" />
          </mxGeometry>
        </mxCell>
        <mxCell id="-Em5idK0ge4OqNYhMPVP-413" value="" style="edgeStyle=entityRelationEdgeStyle;fontSize=12;html=1;endArrow=ERoneToMany;startArrow=ERzeroToMany;rounded=0;exitX=1.006;exitY=0.065;exitDx=0;exitDy=0;exitPerimeter=0;entryX=0;entryY=0.5;entryDx=0;entryDy=0;" parent="1" target="-Em5idK0ge4OqNYhMPVP-296" edge="1">
          <mxGeometry width="100" height="100" relative="1" as="geometry">
            <mxPoint x="-1657.8400000000001" y="-180.00000000000009" as="sourcePoint" />
            <mxPoint x="-1450.0000000000005" y="-177.40999999999994" as="targetPoint" />
          </mxGeometry>
        </mxCell>
        <mxCell id="-Em5idK0ge4OqNYhMPVP-418" value="customer" style="rounded=0;whiteSpace=wrap;html=1;" parent="1" vertex="1">
          <mxGeometry x="-2060" y="265" width="120" height="60" as="geometry" />
        </mxCell>
        <mxCell id="-Em5idK0ge4OqNYhMPVP-421" style="edgeStyle=orthogonalEdgeStyle;rounded=0;orthogonalLoop=1;jettySize=auto;html=1;exitX=0.5;exitY=0;exitDx=0;exitDy=0;" parent="1" source="-Em5idK0ge4OqNYhMPVP-423" edge="1">
          <mxGeometry relative="1" as="geometry">
            <mxPoint x="-1470" y="94" as="targetPoint" />
            <Array as="points">
              <mxPoint x="-1470" y="119" />
              <mxPoint x="-1470" y="119" />
            </Array>
          </mxGeometry>
        </mxCell>
        <mxCell id="-Em5idK0ge4OqNYhMPVP-423" value="product" style="rounded=0;whiteSpace=wrap;html=1;fontStyle=0" parent="1" vertex="1">
          <mxGeometry x="-1530" y="144" width="120" height="60" as="geometry" />
        </mxCell>
        <mxCell id="-Em5idK0ge4OqNYhMPVP-428" value="sales" style="rounded=0;whiteSpace=wrap;html=1;" parent="1" vertex="1">
          <mxGeometry x="-1640" y="430" width="120" height="60" as="geometry" />
        </mxCell>
        <mxCell id="-Em5idK0ge4OqNYhMPVP-429" value="email" style="ellipse;whiteSpace=wrap;html=1;" parent="1" vertex="1">
          <mxGeometry x="-2270" y="246" width="80" height="40" as="geometry" />
        </mxCell>
        <mxCell id="-Em5idK0ge4OqNYhMPVP-430" value="neighborhood" style="ellipse;whiteSpace=wrap;html=1;" parent="1" vertex="1">
          <mxGeometry x="-2220" y="401" width="100" height="40" as="geometry" />
        </mxCell>
        <mxCell id="-Em5idK0ge4OqNYhMPVP-431" value="last_name" style="ellipse;whiteSpace=wrap;html=1;" parent="1" vertex="1">
          <mxGeometry x="-2210" y="206" width="80" height="40" as="geometry" />
        </mxCell>
        <mxCell id="-Em5idK0ge4OqNYhMPVP-432" value="description" style="ellipse;whiteSpace=wrap;html=1;" parent="1" vertex="1">
          <mxGeometry x="-1500" y="55" width="80" height="40" as="geometry" />
        </mxCell>
        <mxCell id="-Em5idK0ge4OqNYhMPVP-433" value="first_name" style="ellipse;whiteSpace=wrap;html=1;" parent="1" vertex="1">
          <mxGeometry x="-2150" y="164" width="80" height="40" as="geometry" />
        </mxCell>
        <mxCell id="-Em5idK0ge4OqNYhMPVP-434" value="sku" style="ellipse;whiteSpace=wrap;html=1;" parent="1" vertex="1">
          <mxGeometry x="-1690" y="100" width="80" height="40" as="geometry" />
        </mxCell>
        <mxCell id="-Em5idK0ge4OqNYhMPVP-435" value="product_name" style="ellipse;whiteSpace=wrap;html=1;" parent="1" vertex="1">
          <mxGeometry x="-1610" y="45" width="80" height="40" as="geometry" />
        </mxCell>
        <mxCell id="-Em5idK0ge4OqNYhMPVP-436" value="price" style="ellipse;whiteSpace=wrap;html=1;" parent="1" vertex="1">
          <mxGeometry x="-1410" y="75" width="80" height="40" as="geometry" />
        </mxCell>
        <mxCell id="-Em5idK0ge4OqNYhMPVP-437" value="customer_id" style="ellipse;whiteSpace=wrap;html=1;" parent="1" vertex="1">
          <mxGeometry x="-1780" y="526" width="80" height="40" as="geometry" />
        </mxCell>
        <mxCell id="-Em5idK0ge4OqNYhMPVP-438" value="date" style="ellipse;whiteSpace=wrap;html=1;" parent="1" vertex="1">
          <mxGeometry x="-1440" y="431" width="80" height="40" as="geometry" />
        </mxCell>
        <mxCell id="-Em5idK0ge4OqNYhMPVP-439" value="sku" style="ellipse;whiteSpace=wrap;html=1;" parent="1" vertex="1">
          <mxGeometry x="-1620" y="570" width="80" height="40" as="geometry" />
        </mxCell>
        <mxCell id="-Em5idK0ge4OqNYhMPVP-441" value="contains" style="rhombus;whiteSpace=wrap;html=1;" parent="1" vertex="1">
          <mxGeometry x="-1550" y="289" width="210" height="51" as="geometry" />
        </mxCell>
        <mxCell id="-Em5idK0ge4OqNYhMPVP-442" value="buy items" style="rhombus;whiteSpace=wrap;html=1;" parent="1" vertex="1">
          <mxGeometry x="-1860" y="371" width="150" height="51" as="geometry" />
        </mxCell>
        <mxCell id="-Em5idK0ge4OqNYhMPVP-443" value="" style="endArrow=none;html=1;rounded=0;exitX=0.5;exitY=0;exitDx=0;exitDy=0;" parent="1" source="-Em5idK0ge4OqNYhMPVP-441" edge="1">
          <mxGeometry width="50" height="50" relative="1" as="geometry">
            <mxPoint x="-1580" y="205" as="sourcePoint" />
            <mxPoint x="-1470" y="210" as="targetPoint" />
          </mxGeometry>
        </mxCell>
        <mxCell id="-Em5idK0ge4OqNYhMPVP-444" value="" style="endArrow=none;html=1;rounded=0;entryX=0.5;entryY=1;entryDx=0;entryDy=0;exitX=0.5;exitY=0;exitDx=0;exitDy=0;" parent="1" source="-Em5idK0ge4OqNYhMPVP-428" target="-Em5idK0ge4OqNYhMPVP-441" edge="1">
          <mxGeometry width="50" height="50" relative="1" as="geometry">
            <mxPoint x="-1710" y="430" as="sourcePoint" />
            <mxPoint x="-1860" y="235" as="targetPoint" />
          </mxGeometry>
        </mxCell>
        <mxCell id="-Em5idK0ge4OqNYhMPVP-445" value="" style="endArrow=none;html=1;rounded=0;exitX=0;exitY=0.5;exitDx=0;exitDy=0;entryX=1;entryY=1;entryDx=0;entryDy=0;" parent="1" source="-Em5idK0ge4OqNYhMPVP-442" target="-Em5idK0ge4OqNYhMPVP-418" edge="1">
          <mxGeometry width="50" height="50" relative="1" as="geometry">
            <mxPoint x="-1770" y="295" as="sourcePoint" />
            <mxPoint x="-1720" y="245" as="targetPoint" />
          </mxGeometry>
        </mxCell>
        <mxCell id="-Em5idK0ge4OqNYhMPVP-446" value="" style="endArrow=none;html=1;rounded=0;exitX=1;exitY=0.5;exitDx=0;exitDy=0;entryX=0;entryY=0;entryDx=0;entryDy=0;" parent="1" source="-Em5idK0ge4OqNYhMPVP-442" target="-Em5idK0ge4OqNYhMPVP-428" edge="1">
          <mxGeometry width="50" height="50" relative="1" as="geometry">
            <mxPoint x="-1890" y="450" as="sourcePoint" />
            <mxPoint x="-1640" y="535" as="targetPoint" />
          </mxGeometry>
        </mxCell>
        <mxCell id="-Em5idK0ge4OqNYhMPVP-447" value="name" style="ellipse;whiteSpace=wrap;html=1;" parent="1" vertex="1">
          <mxGeometry x="-2060" y="144" width="80" height="40" as="geometry" />
        </mxCell>
        <mxCell id="-Em5idK0ge4OqNYhMPVP-448" value="city" style="ellipse;whiteSpace=wrap;html=1;" parent="1" vertex="1">
          <mxGeometry x="-2100" y="401" width="80" height="40" as="geometry" />
        </mxCell>
        <mxCell id="-Em5idK0ge4OqNYhMPVP-449" value="phone" style="ellipse;whiteSpace=wrap;html=1;" parent="1" vertex="1">
          <mxGeometry x="-2250" y="300" width="80" height="40" as="geometry" />
        </mxCell>
        <mxCell id="-Em5idK0ge4OqNYhMPVP-450" value="address" style="ellipse;whiteSpace=wrap;html=1;" parent="1" vertex="1">
          <mxGeometry x="-2240" y="350" width="80" height="40" as="geometry" />
        </mxCell>
        <mxCell id="-Em5idK0ge4OqNYhMPVP-451" value="customer_id" style="ellipse;whiteSpace=wrap;html=1;" parent="1" vertex="1">
          <mxGeometry x="-1970" y="155" width="80" height="40" as="geometry" />
        </mxCell>
        <mxCell id="-Em5idK0ge4OqNYhMPVP-452" value="postal_code" style="ellipse;whiteSpace=wrap;html=1;" parent="1" vertex="1">
          <mxGeometry x="-2010" y="401" width="80" height="40" as="geometry" />
        </mxCell>
        <mxCell id="-Em5idK0ge4OqNYhMPVP-453" value="" style="endArrow=classic;html=1;rounded=0;" parent="1" edge="1">
          <mxGeometry width="50" height="50" relative="1" as="geometry">
            <mxPoint x="-1970" y="330" as="sourcePoint" />
            <mxPoint x="-1960" y="400" as="targetPoint" />
          </mxGeometry>
        </mxCell>
        <mxCell id="-Em5idK0ge4OqNYhMPVP-454" value="" style="endArrow=classic;html=1;rounded=0;entryX=1;entryY=0;entryDx=0;entryDy=0;" parent="1" target="-Em5idK0ge4OqNYhMPVP-448" edge="1">
          <mxGeometry width="50" height="50" relative="1" as="geometry">
            <mxPoint x="-2005" y="325" as="sourcePoint" />
            <mxPoint x="-1995" y="395" as="targetPoint" />
          </mxGeometry>
        </mxCell>
        <mxCell id="-Em5idK0ge4OqNYhMPVP-455" value="" style="endArrow=classic;html=1;rounded=0;entryX=1;entryY=0;entryDx=0;entryDy=0;exitX=0.25;exitY=1;exitDx=0;exitDy=0;" parent="1" source="-Em5idK0ge4OqNYhMPVP-418" edge="1">
          <mxGeometry width="50" height="50" relative="1" as="geometry">
            <mxPoint x="-2100" y="331" as="sourcePoint" />
            <mxPoint x="-2127" y="413" as="targetPoint" />
          </mxGeometry>
        </mxCell>
        <mxCell id="-Em5idK0ge4OqNYhMPVP-456" value="" style="endArrow=classic;html=1;rounded=0;entryX=1;entryY=0;entryDx=0;entryDy=0;exitX=0;exitY=1;exitDx=0;exitDy=0;" parent="1" source="-Em5idK0ge4OqNYhMPVP-418" edge="1">
          <mxGeometry width="50" height="50" relative="1" as="geometry">
            <mxPoint x="-2060" y="330" as="sourcePoint" />
            <mxPoint x="-2160" y="374" as="targetPoint" />
          </mxGeometry>
        </mxCell>
        <mxCell id="-Em5idK0ge4OqNYhMPVP-457" value="" style="endArrow=classic;html=1;rounded=0;entryX=1;entryY=0;entryDx=0;entryDy=0;exitX=0;exitY=0.5;exitDx=0;exitDy=0;" parent="1" source="-Em5idK0ge4OqNYhMPVP-418" edge="1">
          <mxGeometry width="50" height="50" relative="1" as="geometry">
            <mxPoint x="-2070" y="276" as="sourcePoint" />
            <mxPoint x="-2170" y="325" as="targetPoint" />
          </mxGeometry>
        </mxCell>
        <mxCell id="-Em5idK0ge4OqNYhMPVP-458" value="" style="endArrow=classic;html=1;rounded=0;entryX=1;entryY=0;entryDx=0;entryDy=0;exitX=0;exitY=0.25;exitDx=0;exitDy=0;" parent="1" source="-Em5idK0ge4OqNYhMPVP-418" edge="1">
          <mxGeometry width="50" height="50" relative="1" as="geometry">
            <mxPoint x="-2080" y="235" as="sourcePoint" />
            <mxPoint x="-2190" y="265" as="targetPoint" />
          </mxGeometry>
        </mxCell>
        <mxCell id="-Em5idK0ge4OqNYhMPVP-459" value="" style="endArrow=classic;html=1;rounded=0;entryX=1;entryY=0;entryDx=0;entryDy=0;exitX=0;exitY=0;exitDx=0;exitDy=0;" parent="1" source="-Em5idK0ge4OqNYhMPVP-418" edge="1">
          <mxGeometry width="50" height="50" relative="1" as="geometry">
            <mxPoint x="-2030" y="206" as="sourcePoint" />
            <mxPoint x="-2140" y="236" as="targetPoint" />
          </mxGeometry>
        </mxCell>
        <mxCell id="-Em5idK0ge4OqNYhMPVP-460" value="" style="endArrow=classic;html=1;rounded=0;entryX=0.667;entryY=0.964;entryDx=0;entryDy=0;entryPerimeter=0;exitX=0.25;exitY=0;exitDx=0;exitDy=0;" parent="1" source="-Em5idK0ge4OqNYhMPVP-418" target="-Em5idK0ge4OqNYhMPVP-433" edge="1">
          <mxGeometry width="50" height="50" relative="1" as="geometry">
            <mxPoint x="-2030" y="260" as="sourcePoint" />
            <mxPoint x="-2100" y="210" as="targetPoint" />
          </mxGeometry>
        </mxCell>
        <mxCell id="-Em5idK0ge4OqNYhMPVP-461" value="" style="endArrow=classic;html=1;rounded=0;exitX=0.398;exitY=-0.004;exitDx=0;exitDy=0;exitPerimeter=0;entryX=0.5;entryY=1;entryDx=0;entryDy=0;" parent="1" source="-Em5idK0ge4OqNYhMPVP-418" target="-Em5idK0ge4OqNYhMPVP-447" edge="1">
          <mxGeometry width="50" height="50" relative="1" as="geometry">
            <mxPoint x="-1966.5" y="246" as="sourcePoint" />
            <mxPoint x="-2033" y="190" as="targetPoint" />
          </mxGeometry>
        </mxCell>
        <mxCell id="-Em5idK0ge4OqNYhMPVP-462" value="" style="endArrow=classic;html=1;rounded=0;entryX=0;entryY=1;entryDx=0;entryDy=0;" parent="1" target="-Em5idK0ge4OqNYhMPVP-451" edge="1">
          <mxGeometry width="50" height="50" relative="1" as="geometry">
            <mxPoint x="-1980" y="260" as="sourcePoint" />
            <mxPoint x="-1970" y="183.5" as="targetPoint" />
          </mxGeometry>
        </mxCell>
        <mxCell id="-Em5idK0ge4OqNYhMPVP-463" value="" style="endArrow=classic;html=1;rounded=0;exitX=0;exitY=0;exitDx=0;exitDy=0;entryX=0.5;entryY=1;entryDx=0;entryDy=0;" parent="1" target="-Em5idK0ge4OqNYhMPVP-435" edge="1">
          <mxGeometry width="50" height="50" relative="1" as="geometry">
            <mxPoint x="-1500" y="144" as="sourcePoint" />
            <mxPoint x="-1570" y="90" as="targetPoint" />
          </mxGeometry>
        </mxCell>
        <mxCell id="-Em5idK0ge4OqNYhMPVP-464" value="" style="endArrow=classic;html=1;rounded=0;exitX=0.75;exitY=0;exitDx=0;exitDy=0;entryX=0.028;entryY=0.8;entryDx=0;entryDy=0;entryPerimeter=0;" parent="1" source="-Em5idK0ge4OqNYhMPVP-423" target="-Em5idK0ge4OqNYhMPVP-436" edge="1">
          <mxGeometry width="50" height="50" relative="1" as="geometry">
            <mxPoint x="-1385" y="154" as="sourcePoint" />
            <mxPoint x="-1455" y="95" as="targetPoint" />
          </mxGeometry>
        </mxCell>
        <mxCell id="-Em5idK0ge4OqNYhMPVP-465" value="" style="endArrow=classic;html=1;rounded=0;entryX=1;entryY=0.5;entryDx=0;entryDy=0;exitX=0;exitY=0.25;exitDx=0;exitDy=0;" parent="1" source="-Em5idK0ge4OqNYhMPVP-423" target="-Em5idK0ge4OqNYhMPVP-434" edge="1">
          <mxGeometry width="50" height="50" relative="1" as="geometry">
            <mxPoint x="-1540" y="164" as="sourcePoint" />
            <mxPoint x="-1620" y="135" as="targetPoint" />
          </mxGeometry>
        </mxCell>
        <mxCell id="-Em5idK0ge4OqNYhMPVP-466" value="amount" style="ellipse;whiteSpace=wrap;html=1;" parent="1" vertex="1">
          <mxGeometry x="-1420" y="486" width="80" height="40" as="geometry" />
        </mxCell>
        <mxCell id="-Em5idK0ge4OqNYhMPVP-467" value="quantity" style="ellipse;whiteSpace=wrap;html=1;" parent="1" vertex="1">
          <mxGeometry x="-1450" y="530" width="80" height="40" as="geometry" />
        </mxCell>
        <mxCell id="-Em5idK0ge4OqNYhMPVP-469" value="sales_order" style="ellipse;whiteSpace=wrap;html=1;" parent="1" vertex="1">
          <mxGeometry x="-1820" y="470" width="80" height="40" as="geometry" />
        </mxCell>
        <mxCell id="-Em5idK0ge4OqNYhMPVP-472" value="" style="endArrow=classic;html=1;rounded=0;exitX=0.185;exitY=1.043;exitDx=0;exitDy=0;exitPerimeter=0;entryX=0.403;entryY=0.036;entryDx=0;entryDy=0;entryPerimeter=0;" parent="1" target="-Em5idK0ge4OqNYhMPVP-439" edge="1">
          <mxGeometry width="50" height="50" relative="1" as="geometry">
            <mxPoint x="-1590" y="490" as="sourcePoint" />
            <mxPoint x="-1632" y="557" as="targetPoint" />
          </mxGeometry>
        </mxCell>
        <mxCell id="-Em5idK0ge4OqNYhMPVP-474" value="" style="endArrow=classic;html=1;rounded=0;exitX=0;exitY=0.75;exitDx=0;exitDy=0;" parent="1" source="-Em5idK0ge4OqNYhMPVP-428" edge="1">
          <mxGeometry width="50" height="50" relative="1" as="geometry">
            <mxPoint x="-1668" y="470" as="sourcePoint" />
            <mxPoint x="-1710" y="537" as="targetPoint" />
          </mxGeometry>
        </mxCell>
        <mxCell id="-Em5idK0ge4OqNYhMPVP-476" value="" style="endArrow=classic;html=1;rounded=0;exitX=0;exitY=0.25;exitDx=0;exitDy=0;" parent="1" source="-Em5idK0ge4OqNYhMPVP-428" edge="1">
          <mxGeometry width="50" height="50" relative="1" as="geometry">
            <mxPoint x="-1670" y="428" as="sourcePoint" />
            <mxPoint x="-1740" y="490" as="targetPoint" />
          </mxGeometry>
        </mxCell>
        <mxCell id="-Em5idK0ge4OqNYhMPVP-477" value="" style="endArrow=classic;html=1;rounded=0;exitX=0.185;exitY=1.043;exitDx=0;exitDy=0;exitPerimeter=0;entryX=0;entryY=0.5;entryDx=0;entryDy=0;" parent="1" target="-Em5idK0ge4OqNYhMPVP-467" edge="1">
          <mxGeometry width="50" height="50" relative="1" as="geometry">
            <mxPoint x="-1520" y="470" as="sourcePoint" />
            <mxPoint x="-1490" y="547" as="targetPoint" />
          </mxGeometry>
        </mxCell>
        <mxCell id="-Em5idK0ge4OqNYhMPVP-478" value="" style="endArrow=classic;html=1;rounded=0;exitX=0.185;exitY=1.043;exitDx=0;exitDy=0;exitPerimeter=0;entryX=0;entryY=0.5;entryDx=0;entryDy=0;" parent="1" target="-Em5idK0ge4OqNYhMPVP-466" edge="1">
          <mxGeometry width="50" height="50" relative="1" as="geometry">
            <mxPoint x="-1520" y="449" as="sourcePoint" />
            <mxPoint x="-1490" y="526" as="targetPoint" />
          </mxGeometry>
        </mxCell>
        <mxCell id="-Em5idK0ge4OqNYhMPVP-479" value="" style="endArrow=classic;html=1;rounded=0;exitX=0.185;exitY=1.043;exitDx=0;exitDy=0;exitPerimeter=0;entryX=0;entryY=0.5;entryDx=0;entryDy=0;" parent="1" target="-Em5idK0ge4OqNYhMPVP-438" edge="1">
          <mxGeometry width="50" height="50" relative="1" as="geometry">
            <mxPoint x="-1520" y="431" as="sourcePoint" />
            <mxPoint x="-1490" y="508" as="targetPoint" />
          </mxGeometry>
        </mxCell>
      </root>
    </mxGraphModel>
  </diagram>
</mxfile>
